<?xml version="1.0" encoding="utf-8"?>
<!-- Generator: Adobe Illustrator 20.0.0, SVG Export Plug-In . SVG Version: 6.00 Build 0)  -->
<svg version="1.1" xmlns="http://www.w3.org/2000/svg" xmlns:xlink="http://www.w3.org/1999/xlink" x="0px" y="0px"
	 viewBox="0 0 805.5 559.1" style="enable-background:new 0 0 805.5 559.1;" xml:space="preserve">
<style type="text/css">
	.st0{fill:#FFFFFF;}
	.st1{fill:#27AAE1;}
	.st2{fill:#7788C4;}
	.st3{fill:#65469C;}
	.st4{fill:#2BB673;}
	.st5{fill:none;stroke:#FFFFFF;stroke-width:2;stroke-miterlimit:10;}
</style>
<g id="Layer_2">
	<g>
		<path class="st0" d="M402.8,20.1c35.1,0,69.2,6.9,101.2,20.4c31,13.1,58.8,31.8,82.6,55.7c23.9,23.9,42.6,51.7,55.7,82.6
			c13.6,32,20.4,66.1,20.4,101.2s-6.9,69.2-20.4,101.2c-13.1,31-31.8,58.8-55.7,82.6c-23.9,23.9-51.7,42.6-82.6,55.7
			c-32,13.6-66.1,20.4-101.2,20.4s-69.2-6.9-101.2-20.4c-31-13.1-58.8-31.8-82.6-55.7c-23.9-23.9-42.6-51.7-55.7-82.6
			c-13.6-32-20.4-66.1-20.4-101.2s6.9-69.2,20.4-101.2c13.1-31,31.8-58.8,55.7-82.6c23.9-23.9,51.7-42.6,82.6-55.7
			C333.6,27,367.6,20.1,402.8,20.1 M402.8,1.1c-154.1,0-279,124.9-279,279s124.9,279,279,279s279-124.9,279-279S556.8,1.1,402.8,1.1
			L402.8,1.1z"/>
	</g>
</g>
<g id="Layer_1">
	<g>
		<g id="connection">
			<path class="st1" d="M415.8,228.2c-4,4.1-7,8.4-9.1,12.5c-2.2-4.1-5.1-8.4-9.1-12.5c-13.9-14.2-35.6-21.4-64.4-21.4v12.3
				c25.3,0,43.9,5.9,55.4,17.5c11.9,12,11.8,25.8,11.8,26.4v28.8h0.2h12.1h0.2v-28.7v-0.1V263c0-0.6-0.1-14.5,11.8-26.4
				c11.5-11.6,30.1-17.5,55.4-17.5v-12.3C451.3,206.8,429.7,214,415.8,228.2z"/>
		</g>
		<g id="icons">
			<g>
				<g>
					<path class="st2" d="M270.6,224.8c-7.6,0-13.8-6.6-13.8-14.6s6.2-14.6,13.8-14.6s13.8,6.6,13.8,14.6S278.2,224.8,270.6,224.8z
						 M232.1,224.8c-7.6,0-13.8-6.6-13.8-14.6s6.2-14.6,13.8-14.6c3.6,0,7.1,1.5,9.7,4.1c2.8,2.8,4.2,6.6,4.1,10.6
						C246,218.2,239.8,224.8,232.1,224.8z"/>
					<path class="st2" d="M270.6,198.6c-6,0-10.8,5.2-10.8,11.6c0,6.5,4.9,11.6,10.8,11.6c6,0,10.8-5.2,10.8-11.6
						C281.3,203.7,276.5,198.6,270.6,198.6z M232.1,198.6c-6,0-10.8,5.2-10.8,11.6c0,6.5,4.9,11.6,10.8,11.6c6,0,10.8-5.2,10.8-11.6
						C243,203.7,238.2,198.6,232.1,198.6z"/>
					<path class="st0" d="M222.4,260.9c-24.7-0.8-34.3-16.8-34.8-17.5l-0.4-0.7v-0.9c0-34.1,14.9-61.3,15.6-62.4l0.3-0.6l0.6-0.4
						c15.1-11.3,29.6-11.6,31.2-11.6h0.2l1.4,0.1l0.9,1.1l3.3,4c3.6-0.4,7.3-0.7,11.1-0.7c3.4,0,6.9,0.2,10.3,0.6
						c0.2,0,0.5,0.1,0.7,0.1l4.4-5l1.4-0.1h0.2c1.6,0,16.2,0.3,31.2,11.6l0.6,0.4l0.3,0.6c0.6,1.2,15.6,28.4,15.6,62.4l-3.1,0.7v2.3
						c1.2,0,2-0.6,2.4-1.2l-0.1,0.1c-3.4,4.9-13.6,16.2-34.4,16.9l-1.5,0.1l-1-1.2c-0.1-0.1-3.9-4.6-7-8.5l-1.2-1.5
						c-1.4,0.3-2.7,0.6-4.1,0.9c-4.5,0.9-9.1,1.3-13.7,1.3c-4.8,0-9.8-0.5-14.8-1.4c-1.7-0.3-3.3-0.7-4.8-1l-1.2,1.6
						c-3.1,4-7,8.5-7.1,8.7l-1,1.1L222.4,260.9z"/>
					<path class="st0" d="M281.2,257.8c0,0-3.8-4.6-7-8.4c13.8-3.9,19.1-12.4,19.1-12.4c-4.3,2.8-8.4,4.9-12.1,6.2
						c-5.3,2.2-10.3,3.6-15.3,4.6c-10.1,1.9-19.4,1.4-27.3-0.1c-6-1.2-11.2-2.8-15.5-4.6c-2.4-0.9-5-2.1-7.7-3.6
						c-0.3-0.2-0.6-0.3-0.9-0.6c-0.2-0.1-0.3-0.2-0.4-0.2c-1.9-1-3-1.8-3-1.8s5,8.3,18.5,12.3c-3.1,4-7.1,8.6-7.1,8.6
						c-23.3-0.7-32.2-15.9-32.2-15.9c0-33.6,15.2-60.9,15.2-60.9c15.2-11.3,29.5-10.9,29.5-10.9l1,1.3
						c-18.9,5.4-27.6,13.7-27.6,13.7s2.3-1.3,6.2-3c11.3-5,20.2-6.2,23.9-6.6c0.6-0.1,1.2-0.2,1.8-0.2c6.5-0.9,13.7-1,21.3-0.2
						c10,1.2,20.8,4.1,31.7,10c0,0-8.3-7.9-26.3-13.3l1.5-1.7c0,0,14.5-0.3,29.5,10.9c0,0,15.2,27.3,15.2,60.9
						C313.3,241.9,304.4,257,281.2,257.8L281.2,257.8z"/>
				</g>
				<g>
					<path class="st2" d="M270.6,198.6c-6,0-10.8,5.2-10.8,11.6c0,6.5,4.9,11.6,10.8,11.6c6,0,10.8-5.2,10.8-11.6
						C281.3,203.7,276.5,198.6,270.6,198.6z M232.1,198.6c-6,0-10.8,5.2-10.8,11.6c0,6.5,4.9,11.6,10.8,11.6c6,0,10.8-5.2,10.8-11.6
						C243,203.7,238.2,198.6,232.1,198.6z"/>
					<path class="st2" d="M321.8,121.4H180.6c-11.9,0-21.6,9.7-21.6,21.6v141.2c0,11.9,9.7,21.6,21.6,21.6h119.5l-5.6-19.3
						l13.5,12.4l12.7,11.7l22.8,19.7V143C343.4,131,333.7,121.4,321.8,121.4z M281.2,257.8c0,0-3.8-4.6-7-8.4
						c13.8-3.9,19.1-12.4,19.1-12.4c-4.3,2.8-8.4,4.9-12.1,6.2c-5.3,2.2-10.3,3.6-15.3,4.6c-10.1,1.9-19.4,1.4-27.3-0.1
						c-6-1.2-11.2-2.8-15.5-4.6c-2.4-0.9-5-2.1-7.7-3.6c-0.3-0.2-0.6-0.3-0.9-0.6c-0.2-0.1-0.3-0.2-0.4-0.2c-1.9-1-3-1.8-3-1.8
						s5,8.3,18.5,12.3c-3.1,4-7.1,8.6-7.1,8.6c-23.3-0.7-32.2-15.9-32.2-15.9c0-33.6,15.2-60.9,15.2-60.9
						c15.2-11.3,29.5-10.9,29.5-10.9l1,1.3c-18.9,5.4-27.6,13.7-27.6,13.7s2.3-1.3,6.2-3c11.3-5,20.2-6.2,23.9-6.6
						c0.6-0.1,1.2-0.2,1.8-0.2c6.5-0.9,13.7-1,21.3-0.2c10,1.2,20.8,4.1,31.7,10c0,0-8.3-7.9-26.3-13.3l1.5-1.7
						c0,0,14.5-0.3,29.5,10.9c0,0,15.2,27.3,15.2,60.9C313.3,241.9,304.4,257,281.2,257.8L281.2,257.8z"/>
				</g>
				<g id="g2993" transform="matrix(1.25,0,0,-1.25,-779.56837,2089.8162)">
					<polygon class="st0" points="1013.7,1567.2 1006.6,1538.3 1009.6,1439.9 1038.1,1426.2 1086.6,1445.9 1135.8,1472.2 
						1142.2,1513.5 1138.1,1567.2 					"/>
					<g id="g2995" transform="matrix(9.5324427,0,0,9.5324427,1348.9493,1188.2344)">
						<path id="path2997" class="st3" d="M-22.6,31.2l-2.5-2.5H-29l-2.2-2.2v2.2h-3.3v10.5h11.9V31.2L-22.6,31.2z M-35.9,40.6
							l-0.7-2.9V24.8h3.3v-1.8h1.8l1.8,1.8h2.9l5.8,5.8v10.1L-35.9,40.6L-35.9,40.6z"/>
					</g>
					<path id="path2999" class="st3" d="M1058,1492.9h13.7v41.2H1058V1492.9z M1095.8,1492.9h13.7v41.2h-13.7V1492.9z"/>
				</g>
			</g>
		</g>
		<g id="roboSquid">
			<g>
				<ellipse class="st0" cx="406.7" cy="372.3" rx="87.6" ry="86.1"/>
				<g>
					<path class="st4" d="M405.5,378.6c-5.6,0-10.1,4.6-10.1,10.1c0,1.2,0.2,2.5,0.7,3.6c1,2.7,3.1,4.9,5.8,5.9
						c1.2,0.4,2.4,0.7,3.8,0.7c5.6,0,10.1-4.6,10.1-10.1C415.7,383.2,411.1,378.6,405.5,378.6z M409.8,391.5
						c-0.4-0.2-0.9-0.4-1.5-0.4c-1.5,0-2.8,1.3-2.8,2.8c-2.8,0-5-2.3-5-5s2.3-5,5-5c2.8,0,5,2.3,5,5
						C410.6,389.8,410.3,390.7,409.8,391.5z"/>
					<path class="st4" d="M406.7,280c-50.9,0-92.3,41.3-92.3,92.3s41.3,92.3,92.3,92.3s92.3-41.3,92.3-92.3S457.7,280,406.7,280z
						 M459.1,341.7c0,0,0.5-0.7,0.6-0.6c2.5,3.4,5.3,6.4,7.6,9.6l-0.6,1.8l-0.4,0.3c-0.7-0.6-1.5-1-2.3-1c-0.3,0-0.6,0.1-1,0.1
						c-2,0.6-3.1,2.5-2.9,4.9H460c-2.3-3.1-4.2-6.7-6.8-10.3c-0.1-0.2,0.6-0.6,0.6-0.6c-1.4-1.8-1.4-4.1,0.2-5.6
						C455.7,339.3,457.7,340,459.1,341.7z M440,334.9c1-2,3.2-2.3,5.1-1.1c0,0,0.2-0.9,0.4-0.7c3.5,2.2,7.1,3.8,10.5,5.7l0.1,0.6
						c-0.8,0-1.6,0.3-2.3,0.9c-1.7,1.4-1.9,3.8-0.7,5.8c-0.3,0.2-0.4,0.4-0.4,0.5s0,0.2,0,0.3l-1.4,0.7c-3.3-2-6.3-4.5-9.9-6.7
						c-0.2-0.1,0.4-0.7,0.4-0.7C439.8,339,438.9,336.9,440,334.9z M357.5,338.8c3.3-2,7-3.6,10.5-5.7c0.2-0.1,0.4,0.7,0.4,0.7
						c1.9-1.2,4-0.9,5.1,1.1c1.1,2,0.1,4.1-1.8,5.3c0,0,0.6,0.6,0.4,0.7c-3.6,2.2-6.7,4.7-9.9,6.7l-1.4-0.7c0-0.1,0-0.2,0-0.3
						c-0.1-0.1-0.1-0.3-0.4-0.5c1.2-2.1,1-4.4-0.7-5.8c-0.7-0.6-1.5-0.9-2.3-0.9L357.5,338.8z M353.7,341.2c0.1-0.2,0.6,0.6,0.6,0.6
						c1.4-1.8,3.4-2.5,5.1-1c1.7,1.4,1.6,3.8,0.2,5.5c0,0,0.7,0.4,0.6,0.6c-2.6,3.6-4.5,7.1-6.8,10.3h-0.2c0.2-2.4-0.9-4.3-2.9-4.9
						c-0.3-0.1-0.7-0.1-1-0.1c-0.9,0-1.7,0.4-2.3,1l-0.4-0.3l-0.6-1.8C348.4,347.6,351.3,344.6,353.7,341.2z M345.3,355.8
						c0.1-0.2,0.7,0.2,0.7,0.2c0.6-2.3,2.2-3.8,4.2-3.3s2.9,2.7,2.3,5c0,0,0.8,0,0.7,0.2c-1,4.4-1.4,8.5-2.3,12.4l-1,0.4
						c-0.7-1.7-2-2.6-3.6-2.6c-0.4,0-0.7,0.1-1.1,0.2c-0.8,0.2-1.4,0.7-1.8,1.3l-0.4-0.1l-1.2-1.5
						C342.9,363.9,344.3,360,345.3,355.8z M345.4,386.4c-1-3.9-1.6-8.1-2.7-12.3c-0.1-0.2,0.7-0.2,0.7-0.2c-0.6-2.3,0.1-4.4,2.2-5
						c2.1-0.6,3.8,0.8,4.4,3.1c0,0,0.7-0.4,0.7-0.2c1.2,4.4,2.7,8.1,3.8,12l-0.7,0.9c-0.1,0-0.3,0-0.6,0.3c-0.9-0.9-2-1.4-3-1.4
						c-0.9,0-1.7,0.4-2.5,1c-0.7,0.7-1.2,1.5-1.3,2.4L345.4,386.4z M356.7,400.5l-0.2,0.2l-1.8,0.2c-2.5-3.1-4.6-6.6-7.3-9.9
						c-0.1-0.2,0.6-0.6,0.6-0.6c-1.4-1.8-1.7-4.1,0-5.6c1.7-1.5,3.8-1,5.1,0.8c0,0,0.4-0.7,0.6-0.6c2.8,3.4,5.6,6.2,8.1,9.2
						l-0.4,1.7c-0.3-0.1-0.6-0.1-0.9-0.1c-1.5,0-2.8,0.9-3.4,2.3C356.8,398.9,356.7,399.7,356.7,400.5z M369.8,410.3
						c-3.4-1.7-6.7-4.1-10.4-5.8c-0.2-0.1,0.3-0.8,0.3-0.8c-2-1-3-3-2.1-5.1s3-2.5,5-1.5c0,0,0.1-0.9,0.3-0.8
						c3.8,1.9,7.4,3.1,10.8,4.9l0.3,1.9c-2.2,0.4-3.6,2.2-3.5,4.4c0.1,0.7,0.2,1.4,0.6,2L369.8,410.3z M386.9,411.4
						c-3.8,0.2-7.7-0.1-11.7,0.2c-0.2,0-0.1-0.9-0.1-0.9c-2.2,0.1-4-1.1-4.1-3.4c-0.1-2.3,1.5-3.8,3.7-3.9c0,0-0.2-0.8-0.1-0.9
						c4.2-0.3,7.9-1.1,11.6-1.4l0.4,0.4l-0.1,0.6c0,0.1-0.1,0.4,0.4,0.7c-0.6,0.9-0.9,1.8-0.9,2.8c0,1.2,0.5,2.3,1.4,3.1
						c0.1,0.1,0.2,0.1,0.2,0.2l0.1,0.7L386.9,411.4z M420.4,407.5c0,0-0.4,0.6-0.6,0.6c-1.8-0.1-3.9-0.1-5.8-0.3
						c-2.4,1-5,1.6-7.9,1.6c-2.7,0-5.2-0.6-7.6-1.5c-1.7,0.1-3.3,0.1-4.9,0.2c-0.2,0-0.6-0.6-0.6-0.6c-1.4,1.8-3.4,2.4-5.1,0.9
						c-1.7-1.5-1.5-3.8-0.1-5.6c0,0-0.6-0.3-0.6-0.6c0.2-1.9,0.3-3.5,0.5-4.9c-1.2-2.6-1.8-5.5-1.8-8.5c0-5.7,5.2-19.9,10.3-32.6
						l-5.3,12.3c0,0-4.9-3.3-5-5c-0.9-9.1,20.3-30.4,20.3-30.4s21.2,21.3,20.3,30.4c-0.2,1.8-5,5-5,5l-5.3-12.3
						c5.1,12.7,10.3,26.9,10.3,32.6c0,2.1-0.3,4.1-0.9,6c0.3,1.8,0.5,4.1,0.8,7.3c0,0.2-0.6,0.6-0.6,0.6c1.4,1.8,1.5,4.1-0.1,5.6
						C423.8,409.9,421.8,409.3,420.4,407.5z M438.3,410.8c0,0,0.1,0.9-0.1,0.9c-4-0.2-7.9,0.1-11.7-0.2l-0.9-1.7l0.1-0.7
						c0.1-0.1,0.2-0.1,0.2-0.2c0.9-0.8,1.4-1.9,1.4-3.1c0-0.9-0.3-1.8-0.9-2.8c0.4-0.4,0.4-0.6,0.4-0.7l-0.1-0.6l0.4-0.4
						c3.8,0.2,7.4,1,11.6,1.4c0.2,0-0.1,0.9-0.1,0.9c2.2,0.1,3.8,1.6,3.8,3.9C442.3,409.6,440.5,410.9,438.3,410.8z M453.7,403.6
						c0,0,0.5,0.7,0.3,0.8c-3.6,1.8-7,4.1-10.4,5.8l-1.4-0.9c0.4-0.6,0.6-1.2,0.6-2c0.1-2.3-1.3-4-3.5-4.4l0.3-1.9
						c3.4-1.7,7-3,10.8-4.9c0.2-0.1,0.3,0.8,0.3,0.8c2-1,4.1-0.6,5,1.5C456.8,400.5,455.7,402.6,453.7,403.6z M465.9,391
						c-2.6,3.3-4.8,6.8-7.3,9.9l-1.8-0.2l-0.2-0.2c0.1-0.7,0-1.5-0.4-2.3c-0.7-1.5-1.9-2.3-3.4-2.3c-0.3,0-0.6,0.1-0.9,0.1l-0.4-1.7
						c2.5-3,5.3-5.7,8.1-9.2c0.1-0.2,0.6,0.6,0.6,0.6c1.4-1.8,3.5-2.3,5.1-0.8c1.7,1.5,1.4,3.8,0,5.6
						C465.3,390.5,466,390.8,465.9,391z M468.1,386.4l-1.1,0.4c-0.1-0.9-0.6-1.7-1.3-2.4c-0.7-0.7-1.5-1-2.5-1c-1,0-2.1,0.5-3,1.4
						c-0.3-0.3-0.5-0.3-0.6-0.3l-0.7-0.9c1-3.9,2.6-7.6,3.8-12c0.1-0.2,0.7,0.2,0.7,0.2c0.6-2.3,2.3-3.7,4.4-3.1
						c2.1,0.6,2.8,2.8,2.2,5c0,0,0.8,0.1,0.8,0.2C469.7,378.3,469.1,382.5,468.1,386.4z M470.3,369.4l-0.4,0.1
						c-0.4-0.6-1.1-1-1.8-1.3c-0.4-0.1-0.7-0.2-1.1-0.2c-1.5,0-2.8,1-3.6,2.6l-1-0.4c-0.9-3.9-1.3-8-2.3-12.4
						c-0.1-0.2,0.7-0.2,0.7-0.2c-0.6-2.3,0.2-4.4,2.3-5c2.1-0.6,3.8,1,4.2,3.3c0,0,0.7-0.4,0.8-0.2c0.9,4.2,2.4,8.2,3.3,12.1
						L470.3,369.4z"/>
				</g>
				<ellipse class="st5" cx="406.7" cy="372.3" rx="87.6" ry="86.1"/>
			</g>
		</g>
	</g>
</g>
</svg>
