<?xml version="1.0" encoding="utf-8"?>
<!-- Generator: Adobe Illustrator 20.0.0, SVG Export Plug-In . SVG Version: 6.00 Build 0)  -->
<svg version="1.0" xmlns="http://www.w3.org/2000/svg" xmlns:xlink="http://www.w3.org/1999/xlink" x="0px" y="0px"
	 viewBox="0 0 805.5 559.1" style="enable-background:new 0 0 805.5 559.1;" xml:space="preserve">
<style type="text/css">
	.st0{fill:#27AAE1;}
	.st1{fill:#7788C4;}
	.st2{fill:#FFFFFF;}
	.st3{fill:#65469C;}
	.st4{fill:#2BB673;}
	.st5{fill:none;stroke:#FFFFFF;stroke-width:2;stroke-miterlimit:10;}
</style>
<g id="Layer_3">
	<path class="st0" d="M417.5,174.8c-6.5,6.6-11.3,13.6-14.8,20.3c-3.5-6.7-8.3-13.6-14.8-20.3c-22.6-23.1-57.8-34.8-104.7-34.8v20
		c41.1,0,71.4,9.6,90.1,28.5c19.3,19.5,19.2,42,19.2,42.9l0,46.8h0.4h19.6h0.4v-46.6l0-0.1l0-0.1c0-1-0.1-23.5,19.2-43
		c18.7-18.9,49-28.5,90.1-28.5v-20C475.3,140,440.1,151.7,417.5,174.8z"/>
</g>
<g id="Layer_1">
	<g>
		<g>
			<path class="st1" d="M181.4,126.6c-9.8,0-17.5,8.4-17.5,18.8c0,10.5,7.9,18.8,17.5,18.8c9.8,0,17.5-8.4,17.5-18.8
				C198.9,135,191,126.6,181.4,126.6z M118.9,126.6c-9.8,0-17.5,8.4-17.5,18.8c0,10.5,7.9,18.8,17.5,18.8c9.8,0,17.5-8.4,17.5-18.8
				C136.6,135,128.7,126.6,118.9,126.6z"/>
			<path class="st1" d="M264.7,1.1H35.1C15.8,1.1,0,16.8,0,36.2v229.6c0,19.4,15.8,35.1,35.1,35.1h194.3l-9.1-31.4l21.9,20.2
				l20.7,19l37,32V36.2C299.8,16.8,284.1,1.1,264.7,1.1z M198.6,222.9c0,0-6.2-7.4-11.3-13.7c22.4-6.3,31-20.2,31-20.2
				c-7,4.6-13.7,7.9-19.7,10.1c-8.6,3.6-16.8,5.8-24.8,7.4c-16.4,3.1-31.5,2.2-44.4-0.2c-9.8-1.9-18.2-4.5-25.2-7.4
				c-3.9-1.5-8.2-3.4-12.5-5.8c-0.5-0.3-1-0.5-1.5-0.9c-0.3-0.2-0.5-0.3-0.7-0.3c-3.1-1.7-4.8-2.9-4.8-2.9s8.2,13.5,30,20
				c-5.1,6.5-11.5,14-11.5,14c-37.9-1.2-52.3-25.9-52.3-25.9c0-54.7,24.7-99,24.7-99c24.7-18.3,48-17.8,48-17.8l1.7,2.1
				c-30.8,8.7-44.9,22.3-44.9,22.3s3.8-2.1,10.1-4.8c18.3-8.1,32.9-10.1,38.9-10.8c1-0.2,1.9-0.3,2.9-0.3
				c10.5-1.4,22.3-1.7,34.6-0.3c16.3,1.9,33.8,6.7,51.6,16.3c0,0-13.5-12.8-42.7-21.6l2.4-2.7c0,0,23.5-0.5,48,17.8
				c0,0,24.7,44.4,24.7,99C250.8,197.1,236.4,221.7,198.6,222.9L198.6,222.9z"/>
		</g>
		
			<g id="g2993" transform="matrix(1.25,0,0,-1.25,-779.56837,2089.8162)" >
			<polygon class="st2" points="1051,1658.7 1039.4,1611.7 1044.3,1451.7 1090.7,1429.5 1169.5,1461.5 1249.5,1504.2 1259.9,1571.4 
				1253.2,1658.7 			"/>
			<g id="g2995" transform="matrix(9.5324427,0,0,9.5324427,1348.9493,1188.2344)">
				<path id="path2997" class="st3" d="M-10.8,35.5l-4.1-4.1h-6.4l-3.5-3.5v3.5h-5.3v17h19.3V35.5
					z M-32.5,50.7l-1.2-4.7V25h5.3V22h2.9l2.9,2.9h4.7l9.4,9.4v16.4H-32.5z"/>
			</g>
			<path id="path2999" class="st3" d="M1123,1537.9h22.3v67H1123V1537.9z M1184.4,1537.9h22.3v67
				h-22.3V1537.9z"/>
		</g>
	</g>
</g>
<g id="Layer_2">
	<g>
		<ellipse class="st2" cx="402.8" cy="409.1" rx="142.5" ry="140"/>
		<g>
			<path class="st4" d="M400.8,419.4c-9.1,0-16.5,7.4-16.5,16.5c0,2,0.4,4,1.1,5.8c1.6,4.4,5,7.9,9.4,9.6c1.9,0.7,3.9,1.1,6.1,1.1
				c9.1,0,16.5-7.4,16.5-16.5C417.3,426.8,409.9,419.4,400.8,419.4z M407.8,440.3c-0.7-0.4-1.5-0.7-2.4-0.7c-2.5,0-4.6,2.1-4.6,4.6
				c-4.6,0-8.2-3.7-8.2-8.2s3.7-8.2,8.2-8.2c4.6,0,8.2,3.7,8.2,8.2C409.1,437.5,408.6,439,407.8,440.3z"/>
			<path class="st4" d="M402.8,259.1c-82.8,0-150,67.2-150,150s67.2,150,150,150s150-67.2,150-150S485.6,259.1,402.8,259.1z
				 M487.9,359.4c0,0,0.8-1.1,1-0.9c4,5.5,8.6,10.4,12.4,15.6l-0.9,3l-0.6,0.5c-1.1-1-2.4-1.6-3.8-1.6c-0.5,0-1,0.1-1.6,0.2
				c-3.3,0.9-5.1,4-4.7,7.9l-0.4,0c-3.7-5.1-6.9-10.9-11.1-16.7c-0.2-0.3,1-0.9,1-0.9c-2.2-3-2.3-6.7,0.4-9.1
				C482.4,355.4,485.7,356.5,487.9,359.4z M456.8,348.2c1.7-3.3,5.2-3.7,8.3-1.8c0,0,0.4-1.4,0.6-1.2c5.7,3.5,11.6,6.1,17,9.3l0.1,1
				c-1.3,0-2.6,0.5-3.7,1.4c-2.7,2.3-3.1,6.1-1.1,9.5c-0.5,0.4-0.6,0.7-0.6,0.8s0,0.3,0,0.5l-2.2,1.1c-5.3-3.2-10.2-7.3-16.1-10.9
				c-0.3-0.2,0.6-1.2,0.6-1.2C456.6,354.9,455.1,351.5,456.8,348.2z M322.8,354.6c5.4-3.3,11.3-5.9,17-9.3c0.3-0.2,0.6,1.2,0.6,1.2
				c3.1-1.9,6.5-1.5,8.3,1.8s0.2,6.7-2.9,8.6c0,0,0.9,1,0.6,1.2c-5.9,3.6-10.9,7.7-16.1,10.9l-2.2-1.1c0-0.2,0-0.3,0-0.5
				c-0.1-0.1-0.1-0.5-0.6-0.8c2-3.4,1.6-7.2-1.1-9.5c-1.1-0.9-2.4-1.4-3.7-1.4L322.8,354.6z M316.6,358.6c0.2-0.3,1,0.9,1,0.9
				c2.2-3,5.5-4.1,8.3-1.7c2.8,2.3,2.6,6.1,0.4,9c0,0,1.2,0.6,1,0.9c-4.2,5.8-7.3,11.6-11.1,16.7l-0.4,0c0.4-3.9-1.4-7-4.7-7.9
				c-0.5-0.1-1.1-0.2-1.6-0.2c-1.4,0-2.7,0.6-3.8,1.6l-0.6-0.5l-0.9-3C308,369,312.6,364.1,316.6,358.6z M302.9,382.2
				c0.1-0.3,1.2,0.3,1.2,0.3c0.9-3.7,3.5-6.2,6.9-5.3c3.4,0.9,4.7,4.4,3.8,8.1c0,0,1.3,0,1.2,0.3c-1.6,7.2-2.2,13.8-3.7,20.2
				l-1.6,0.7c-1.2-2.7-3.3-4.3-5.8-4.3c-0.6,0-1.2,0.1-1.8,0.3c-1.3,0.4-2.3,1.1-3,2.1l-0.7-0.2l-1.9-2.4
				C299,395.5,301.3,389.1,302.9,382.2z M303,432c-1.7-6.4-2.6-13.2-4.4-20c-0.1-0.3,1.2-0.4,1.2-0.4c-1-3.7,0.2-7.2,3.5-8.2
				c3.4-1,6.1,1.3,7.1,5c0,0,1.1-0.7,1.2-0.4c1.9,7.1,4.4,13.2,6.1,19.5l-1.1,1.4c-0.2,0-0.5,0-0.9,0.5c-1.4-1.5-3.2-2.3-4.9-2.3
				c-1.4,0-2.8,0.6-4,1.6c-1.2,1.1-1.9,2.4-2.1,3.9L303,432z M321.5,454.9l-0.3,0.3l-2.9,0.3c-4.1-5-7.5-10.8-11.8-16.1
				c-0.2-0.3,1-0.9,1-0.9c-2.3-2.9-2.7-6.6,0-9.1c2.7-2.5,6.1-1.6,8.3,1.3c0,0,0.7-1.2,1-0.9c4.5,5.5,9.1,10,13.1,14.9l-0.6,2.8
				c-0.5-0.1-1-0.2-1.5-0.2c-2.5,0-4.5,1.4-5.6,3.8C321.6,452.4,321.4,453.7,321.5,454.9z M342.7,470.8c-5.6-2.8-10.9-6.6-16.9-9.5
				c-0.3-0.2,0.5-1.3,0.5-1.3c-3.2-1.6-4.9-4.9-3.4-8.3c1.5-3.4,4.9-4.1,8.1-2.5c0,0,0.2-1.4,0.5-1.3c6.2,3.1,12.1,5.1,17.6,7.9
				l0.5,3.1c-3.6,0.7-5.9,3.5-5.7,7.2c0.1,1.2,0.4,2.3,1,3.3L342.7,470.8z M370.6,472.6c-6.2,0.4-12.5-0.1-19,0.3
				c-0.3,0-0.1-1.4-0.1-1.4c-3.5,0.2-6.5-1.8-6.7-5.5c-0.2-3.8,2.5-6.1,6-6.3c0,0-0.4-1.3-0.1-1.4c6.8-0.5,12.9-1.8,18.9-2.2
				l0.6,0.7l-0.1,0.9c0,0.2-0.1,0.7,0.6,1.2c-0.9,1.4-1.4,3-1.4,4.5c0,2,0.8,3.7,2.3,5.1c0.1,0.1,0.3,0.2,0.4,0.3l0.1,1.1
				L370.6,472.6z M425,466.3c0,0-0.7,0.9-1,0.9c-3-0.1-6.4-0.1-9.5-0.5c-3.9,1.7-8.2,2.6-12.8,2.6c-4.4,0-8.5-0.9-12.3-2.4
				c-2.7,0.2-5.4,0.2-7.9,0.3c-0.3,0-1-0.9-1-0.9c-2.2,2.9-5.6,3.9-8.3,1.5s-2.5-6.2-0.2-9.1c0,0-1-0.5-1-0.9
				c0.3-3.1,0.5-5.7,0.8-7.9c-1.9-4.2-3-8.9-3-13.8c0-9.2,8.5-32.4,16.8-53l-8.6,20c0,0-7.9-5.3-8.2-8.2c-1.5-14.8,33-49.5,33-49.5
				s34.5,34.7,33,49.5c-0.3,2.9-8.2,8.2-8.2,8.2l-8.6-20c8.3,20.6,16.8,43.7,16.8,53c0,3.4-0.5,6.7-1.5,9.8c0.5,3,0.8,6.7,1.3,11.8
				c0,0.3-1,0.9-1,0.9c2.2,2.9,2.5,6.7-0.2,9.1C430.6,470.2,427.2,469.2,425,466.3z M454.1,471.6c0,0,0.2,1.4-0.1,1.4
				c-6.5-0.4-12.9,0.1-19-0.3l-1.5-2.7l0.1-1.1c0.1-0.1,0.3-0.2,0.4-0.3c1.5-1.3,2.3-3.1,2.3-5.1c0-1.5-0.5-3-1.4-4.5
				c0.6-0.6,0.6-1,0.6-1.2l-0.1-0.9l0.6-0.7c6.1,0.4,12.1,1.7,18.9,2.2c0.3,0-0.1,1.4-0.1,1.4c3.5,0.2,6.2,2.6,6.1,6.3
				C460.6,469.8,457.6,471.8,454.1,471.6z M479.2,459.9c0,0,0.8,1.1,0.5,1.3c-5.9,3-11.3,6.7-16.9,9.5l-2.2-1.4c0.6-0.9,0.9-2,1-3.3
				c0.2-3.7-2.1-6.5-5.7-7.2l0.5-3.1c5.5-2.8,11.4-4.8,17.6-7.9c0.3-0.1,0.5,1.3,0.5,1.3c3.2-1.6,6.6-1,8.1,2.5
				C484.1,455,482.4,458.3,479.2,459.9z M499,439.5c-4.3,5.3-7.8,11.1-11.8,16.1l-2.9-0.3l-0.3-0.3c0.2-1.2,0-2.5-0.6-3.8
				c-1.1-2.5-3.1-3.8-5.6-3.8c-0.5,0-1,0.1-1.5,0.2l-0.6-2.8c4-4.9,8.6-9.3,13.1-14.9c0.2-0.3,1,0.9,1,0.9c2.3-2.9,5.7-3.8,8.3-1.3
				c2.7,2.5,2.3,6.2,0,9.1C498,438.6,499.2,439.2,499,439.5z M502.5,432l-1.8,0.7c-0.2-1.5-0.9-2.8-2.1-3.9c-1.2-1.1-2.5-1.7-4-1.7
				c-1.7,0-3.4,0.8-4.9,2.3c-0.5-0.5-0.8-0.5-0.9-0.5l-1.1-1.4c1.7-6.3,4.2-12.4,6.1-19.5c0.1-0.3,1.2,0.4,1.2,0.4
				c1-3.7,3.7-6,7.1-5c3.4,1,4.5,4.6,3.5,8.2c0,0,1.3,0.1,1.3,0.4C505.1,418.8,504.2,425.6,502.5,432z M506.1,404.4l-0.7,0.2
				c-0.7-1-1.8-1.7-3-2.1c-0.6-0.2-1.2-0.3-1.8-0.3c-2.5,0-4.6,1.6-5.8,4.3l-1.6-0.7c-1.4-6.4-2.1-13-3.7-20.2
				c-0.1-0.3,1.2-0.3,1.2-0.3c-0.9-3.7,0.4-7.2,3.8-8.1c3.4-0.9,6.1,1.6,6.9,5.3c0,0,1.2-0.6,1.3-0.3c1.5,6.9,3.9,13.3,5.3,19.7
				L506.1,404.4z"/>
		</g>
		<ellipse class="st5" cx="402.8" cy="409.1" rx="142.5" ry="140"/>
	</g>
</g>
</svg>
